HIERARCHY
ROOT Hips
{
    OFFSET 0.000000 97.120003 0.000000
    CHANNELS 6 Xposition Yposition Zposition Yrotation Xrotation Zrotation
    JOINT RightUpLeg
    {
        OFFSET -11.000000 -0.000000 0.000000
        CHANNELS 3 Yrotation Xrotation Zrotation
        JOINT RightLeg
        {
            OFFSET 0.000000 -45.062000 0.000000
            CHANNELS 3 Yrotation Xrotation Zrotation
            JOINT RightFoot
            {
                OFFSET 0.000000 -42.057999 0.000000
                CHANNELS 3 Yrotation Xrotation Zrotation
                End Site
                {
                    OFFSET 0.000000 -10.000000 15.120000
                }
            }
        }
    }
    JOINT LeftUpLeg
    {
        OFFSET 11.000000 -0.000000 0.000000
        CHANNELS 3 Yrotation Xrotation Zrotation
        JOINT LeftLeg
        {
            OFFSET 0.000000 -45.062000 0.000000
            CHANNELS 3 Yrotation Xrotation Zrotation
            JOINT LeftFoot
            {
                OFFSET 0.000000 -42.057999 0.000000
                CHANNELS 3 Yrotation Xrotation Zrotation
                End Site
                {
                    OFFSET 0.000000 -10.000000 15.120000
                }
            }
        }
    }
    JOINT Spine
    {
        OFFSET 0.000000 8.120000 0.000000
        CHANNELS 3 Yrotation Xrotation Zrotation
        JOINT Spine1
        {
            OFFSET 0.000000 17.980000 0.000000
            CHANNELS 3 Yrotation Xrotation Zrotation
            JOINT Spine2
            {
                OFFSET 0.000000 12.760000 0.000000
                CHANNELS 3 Yrotation Xrotation Zrotation
                JOINT Neck
                {
                    OFFSET 0.000000 19.139999 0.000000
                    CHANNELS 3 Yrotation Xrotation Zrotation
                    JOINT Neck1
                    {
                        OFFSET 0.000000 4.250000 0.000000
                        CHANNELS 3 Yrotation Xrotation Zrotation
                        JOINT Head
                        {
                            OFFSET 0.000000 4.250000 0.000000
                            CHANNELS 3 Yrotation Xrotation Zrotation
                            End Site
                            {
                                OFFSET 0.000000 19.120001 0.000000
                            }
                        }
                    }
                }
                JOINT RightShoulder
                {
                    OFFSET -2.900000 13.340000 0.000000
                    CHANNELS 3 Yrotation Xrotation Zrotation
                    JOINT RightArm
                    {
                        OFFSET -16.100000 0.000000 0.000000
                        CHANNELS 3 Yrotation Xrotation Zrotation
                        JOINT RightForeArm
                        {
                            OFFSET -28.000000 0.000000 0.000000
                            CHANNELS 3 Yrotation Xrotation Zrotation
                            JOINT RightHand
                            {
                                OFFSET -26.000000 0.000000 0.000000
                                CHANNELS 3 Yrotation Xrotation Zrotation
                                JOINT RightHandThumb1
                                {
                                    OFFSET -1.937000 -0.484000 2.518000
                                    CHANNELS 3 Yrotation Xrotation Zrotation
                                    JOINT RightHandThumb2
                                    {
                                        OFFSET -3.872000 0.000000 0.000000
                                        CHANNELS 3 Yrotation Xrotation Zrotation
                                        JOINT RightHandThumb3
                                        {
                                            OFFSET -2.690000 0.000000 0.000000
                                            CHANNELS 3 Yrotation Xrotation Zrotation
                                            End Site
                                            {
                                                OFFSET -2.537000 0.000000 0.000000
                                            }
                                        }
                                    }
                                }
                                JOINT RightInHandIndex
                                {
                                    OFFSET -3.389000 0.535000 2.080000
                                    CHANNELS 3 Yrotation Xrotation Zrotation
                                    JOINT RightHandIndex1
                                    {
                                        OFFSET -5.485000 -0.096000 1.051000
                                        CHANNELS 3 Yrotation Xrotation Zrotation
                                        JOINT RightHandIndex2
                                        {
                                            OFFSET -3.806000 0.000000 0.000000
                                            CHANNELS 3 Yrotation Xrotation Zrotation
                                            JOINT RightHandIndex3
                                            {
                                                OFFSET -2.158000 0.000000 0.000000
                                                CHANNELS 3 Yrotation Xrotation Zrotation
                                                End Site
                                                {
                                                    OFFSET -1.898000 0.000000 0.000000
                                                }
                                            }
                                        }
                                    }
                                }
                                JOINT RightInHandMiddle
                                {
                                    OFFSET -3.556000 0.544000 0.796000
                                    CHANNELS 3 Yrotation Xrotation Zrotation
                                    JOINT RightHandMiddle1
                                    {
                                        OFFSET -5.441000 -0.088000 0.330000
                                        CHANNELS 3 Yrotation Xrotation Zrotation
                                        JOINT RightHandMiddle2
                                        {
                                            OFFSET -4.153000 0.000000 0.000000
                                            CHANNELS 3 Yrotation Xrotation Zrotation
                                            JOINT RightHandMiddle3
                                            {
                                                OFFSET -2.603000 0.000000 0.000000
                                                CHANNELS 3 Yrotation Xrotation Zrotation
                                                End Site
                                                {
                                                    OFFSET -2.076000 0.000000 0.000000
                                                }
                                            }
                                        }
                                    }
                                }
                                JOINT RightInHandRing
                                {
                                    OFFSET -3.539000 0.566000 -0.136000
                                    CHANNELS 3 Yrotation Xrotation Zrotation
                                    JOINT RightHandRing1
                                    {
                                        OFFSET -4.873000 -0.023000 -0.504000
                                        CHANNELS 3 Yrotation Xrotation Zrotation
                                        JOINT RightHandRing2
                                        {
                                            OFFSET -3.619000 0.000000 0.000000
                                            CHANNELS 3 Yrotation Xrotation Zrotation
                                            JOINT RightHandRing3
                                            {
                                                OFFSET -2.511000 0.000000 0.000000
                                                CHANNELS 3 Yrotation Xrotation Zrotation
                                                End Site
                                                {
                                                    OFFSET -1.952000 0.000000 0.000000
                                                }
                                            }
                                        }
                                    }
                                }
                                JOINT RightInHandPinky
                                {
                                    OFFSET -3.324000 0.494000 -1.264000
                                    CHANNELS 3 Yrotation Xrotation Zrotation
                                    JOINT RightHandPinky1
                                    {
                                        OFFSET -4.354000 -0.023000 -1.147000
                                        CHANNELS 3 Yrotation Xrotation Zrotation
                                        JOINT RightHandPinky2
                                        {
                                            OFFSET -2.898000 0.000000 0.000000
                                            CHANNELS 3 Yrotation Xrotation Zrotation
                                            JOINT RightHandPinky3
                                            {
                                                OFFSET -1.831000 0.000000 0.000000
                                                CHANNELS 3 Yrotation Xrotation Zrotation
                                                End Site
                                                {
                                                    OFFSET -1.730000 0.000000 0.000000
                                                }
                                            }
                                        }
                                    }
                                }
                            }
                        }
                    }
                }
                JOINT LeftShoulder
                {
                    OFFSET 2.900000 13.340000 0.000000
                    CHANNELS 3 Yrotation Xrotation Zrotation
                    JOINT LeftArm
                    {
                        OFFSET 16.100000 0.000000 0.000000
                        CHANNELS 3 Yrotation Xrotation Zrotation
                        JOINT LeftForeArm
                        {
                            OFFSET 28.000000 0.000000 0.000000
                            CHANNELS 3 Yrotation Xrotation Zrotation
                            JOINT LeftHand
                            {
                                OFFSET 26.000000 0.000000 0.000000
                                CHANNELS 3 Yrotation Xrotation Zrotation
                                JOINT LeftHandThumb1
                                {
                                    OFFSET 1.937000 -0.484000 2.518000
                                    CHANNELS 3 Yrotation Xrotation Zrotation
                                    JOINT LeftHandThumb2
                                    {
                                        OFFSET 3.872000 0.000000 0.000000
                                        CHANNELS 3 Yrotation Xrotation Zrotation
                                        JOINT LeftHandThumb3
                                        {
                                            OFFSET 2.690000 0.000000 0.000000
                                            CHANNELS 3 Yrotation Xrotation Zrotation
                                            End Site
                                            {
                                                OFFSET 2.537000 0.000000 0.000000
                                            }
                                        }
                                    }
                                }
                                JOINT LeftInHandIndex
                                {
                                    OFFSET 3.389000 0.535000 2.080000
                                    CHANNELS 3 Yrotation Xrotation Zrotation
                                    JOINT LeftHandIndex1
                                    {
                                        OFFSET 5.485000 -0.096000 1.051000
                                        CHANNELS 3 Yrotation Xrotation Zrotation
                                        JOINT LeftHandIndex2
                                        {
                                            OFFSET 3.806000 0.000000 0.000000
                                            CHANNELS 3 Yrotation Xrotation Zrotation
                                            JOINT LeftHandIndex3
                                            {
                                                OFFSET 2.158000 0.000000 0.000000
                                                CHANNELS 3 Yrotation Xrotation Zrotation
                                                End Site
                                                {
                                                    OFFSET 1.898000 0.000000 0.000000
                                                }
                                            }
                                        }
                                    }
                                }
                                JOINT LeftInHandMiddle
                                {
                                    OFFSET 3.556000 0.544000 0.796000
                                    CHANNELS 3 Yrotation Xrotation Zrotation
                                    JOINT LeftHandMiddle1
                                    {
                                        OFFSET 5.441000 -0.088000 0.330000
                                        CHANNELS 3 Yrotation Xrotation Zrotation
                                        JOINT LeftHandMiddle2
                                        {
                                            OFFSET 4.153000 0.000000 0.000000
                                            CHANNELS 3 Yrotation Xrotation Zrotation
                                            JOINT LeftHandMiddle3
                                            {
                                                OFFSET 2.603000 0.000000 0.000000
                                                CHANNELS 3 Yrotation Xrotation Zrotation
                                                End Site
                                                {
                                                    OFFSET 2.076000 0.000000 0.000000
                                                }
                                            }
                                        }
                                    }
                                }
                                JOINT LeftInHandRing
                                {
                                    OFFSET 3.539000 0.566000 -0.136000
                                    CHANNELS 3 Yrotation Xrotation Zrotation
                                    JOINT LeftHandRing1
                                    {
                                        OFFSET 4.873000 -0.023000 -0.504000
                                        CHANNELS 3 Yrotation Xrotation Zrotation
                                        JOINT LeftHandRing2
                                        {
                                            OFFSET 3.619000 0.000000 0.000000
                                            CHANNELS 3 Yrotation Xrotation Zrotation
                                            JOINT LeftHandRing3
                                            {
                                                OFFSET 2.511000 0.000000 0.000000
                                                CHANNELS 3 Yrotation Xrotation Zrotation
                                                End Site
                                                {
                                                    OFFSET 1.952000 0.000000 0.000000
                                                }
                                            }
                                        }
                                    }
                                }
                                JOINT LeftInHandPinky
                                {
                                    OFFSET 3.324000 0.494000 -1.264000
                                    CHANNELS 3 Yrotation Xrotation Zrotation
                                    JOINT LeftHandPinky1
                                    {
                                        OFFSET 4.354000 -0.023000 -1.147000
                                        CHANNELS 3 Yrotation Xrotation Zrotation
                                        JOINT LeftHandPinky2
                                        {
                                            OFFSET 2.898000 0.000000 0.000000
                                            CHANNELS 3 Yrotation Xrotation Zrotation
                                            JOINT LeftHandPinky3
                                            {
                                                OFFSET 1.831000 0.000000 0.000000
                                                CHANNELS 3 Yrotation Xrotation Zrotation
                                                End Site
                                                {
                                                    OFFSET 1.730000 0.000000 0.000000
                                                }
                                            }
                                        }
                                    }
                                }
                            }
                        }
                    }
                }
            }
        }
    }
}
MOTION
Frames: 4
Frame Time: 0.011111
1.892099 194.370575 189.198914 177.260178 169.820877 178.400986 3.349185 -34.799992 8.957917 179.462219 142.028564 176.540512 169.630005 -168.932892 176.194260 171.413681 -143.150345 -166.829269 32.009857 68.892067 13.804461 179.305588 179.738754 -174.432770 179.936218 164.661453 -179.216644 179.856674 164.957413 -178.865265 178.786575 169.074249 -178.701019 179.999802 -177.721008 178.516708 0.000122 -2.657201 -1.536651 175.145660 -177.977493 179.261932 6.192182 1.207676 -1.452554 11.591408 -18.045876 76.924683 9.402184 3.395484 1.266739 172.331604 170.815323 169.622894 65.810257 50.143639 23.919264 0.000071 -0.000134 4.641666 0.000042 -0.000083 3.091347 0.000000 -0.000000 0.000003 14.999968 -0.000267 33.021469 0.000094 -0.000193 27.017576 0.000126 -0.000094 18.912289 0.000000 -0.000000 0.000003 179.999969 -179.999603 -151.151688 0.000156 -0.000354 28.848305 0.000208 -0.000160 19.212978 0.000000 -0.000000 0.000003 169.999985 -179.999817 -153.483551 0.000071 -0.000175 26.516424 0.000096 -0.000091 17.659924 0.000000 -0.000000 0.000003 159.999985 -179.999725 -159.609070 0.000145 -0.000401 30.586414 0.000215 -0.000191 20.370556 178.019348 -175.357544 177.884155 163.043655 -162.213318 106.398392 173.629745 -179.724365 -178.389877 8.928803 11.066936 9.940815 144.644455 122.167389 -171.480194 0.000221 0.000039 -2.754586 0.000162 0.000003 -1.834561 0.000002 0.000003 0.000000 165.000061 -179.999588 166.523895 179.999969 -179.999649 168.974106 179.999939 -179.999756 172.281876 0.000002 0.000003 0.000000 0.000348 -0.000949 -17.296467 0.000044 -0.001019 -17.296465 179.999847 -179.999344 168.480545 0.000002 0.000003 0.000000 10.000607 -0.001186 -12.841162 0.000320 -0.001284 -12.841188 0.000025 -0.000882 -8.552214 0.000002 0.000003 0.000000 20.000237 -0.000372 -17.855110 0.000179 -0.000635 -26.782658 179.999908 -179.999573 162.162735
1.953012 194.469696 189.888962 177.536667 169.890137 178.470535 2.973545 -34.274200 9.007241 179.163040 141.928406 176.299530 169.894043 -168.586563 176.235977 172.343918 -142.272888 -167.327744 28.390383 67.423660 11.366465 178.829346 -179.067093 -174.675156 179.942825 164.712662 -179.228943 179.865662 165.007614 -178.876434 178.837021 169.111938 -178.704468 179.999802 -177.775925 178.518036 0.000107 -2.593220 -1.535262 174.986160 -178.022278 179.264572 6.298073 1.274513 -1.452536 12.613919 -17.805994 75.949745 9.506111 2.067487 1.831186 172.306229 170.960632 169.818237 65.154617 50.072739 23.000134 179.999908 -179.999847 -175.424179 179.999954 -179.999893 -176.952515 0.000000 -0.000000 0.000003 15.000114 0.000658 33.313244 179.999771 179.999512 -152.743759 179.999710 179.999756 -160.920609 0.000000 -0.000000 0.000003 179.999908 -179.999603 -151.008453 0.000096 -0.000381 28.991533 0.000196 -0.000193 19.308367 0.000000 -0.000000 0.000003 169.999954 -179.999847 -153.409119 0.000029 -0.000175 26.590841 0.000061 -0.000096 17.709515 0.000000 -0.000000 0.000003 159.999893 -179.999710 -159.507996 0.000006 -0.000469 30.738024 0.000164 -0.000266 20.471510 178.069107 -175.491364 178.016922 163.463821 -162.740616 106.031555 173.887207 179.863037 -178.425766 8.963851 11.303382 9.600944 145.365189 122.715439 -170.811691 180.000000 179.999985 177.167572 180.000000 179.999985 178.113602 0.000000 -0.000000 0.000000 165.000092 -179.999588 166.565109 179.999985 -179.999680 169.007812 179.999969 -179.999771 172.305496 0.000000 -0.000000 0.000000 0.000419 -0.000852 -17.196995 0.000145 -0.000938 -17.197012 179.999908 -179.999359 168.546799 0.000000 -0.000000 0.000000 10.000656 -0.001013 -12.714065 0.000414 -0.001153 -12.714046 0.000108 -0.000810 -8.467545 0.000000 -0.000000 0.000000 20.000275 -0.000357 -17.819284 0.000232 -0.000668 -26.728912 179.999969 -179.999527 162.198547
2.061391 194.590408 190.547379 177.802124 169.940887 178.523331 2.652747 -33.781227 9.005537 179.294144 141.840210 176.306839 169.790833 -168.301422 176.348145 174.677933 -141.450882 -168.193756 22.233904 65.589081 7.383763 178.521805 -178.092880 -175.036606 179.944946 164.766693 -179.239426 179.870316 165.060547 -178.882309 178.864029 169.150955 -178.706131 179.999802 -177.830353 178.517197 0.000093 -2.529763 -1.536115 174.856812 -178.067032 179.264633 6.400183 1.333411 -1.455786 11.831317 -18.037588 76.621086 9.601930 2.677481 1.585442 172.289764 171.014038 169.833603 64.637505 50.153370 22.297934 179.999878 -179.999817 -175.490967 179.999924 -179.999878 -176.996994 0.000000 -0.000000 0.000000 15.000566 0.000959 33.163563 179.999954 179.999069 -152.866196 179.999680 179.999451 -161.006332 0.000000 -0.000000 0.000000 0.000008 -0.000009 29.183825 0.000009 -0.000006 29.183821 0.000006 -0.000005 19.436422 0.000000 -0.000000 0.000000 170.000290 179.999634 -153.261826 0.000101 0.000453 26.738195 179.999939 179.999710 -162.192368 0.000000 -0.000000 0.000000 160.000275 179.999725 -159.308685 0.000190 0.000543 31.036987 179.999939 179.999619 -159.329346 178.136536 -175.618790 178.142914 164.117416 -163.189682 105.501823 174.107986 179.268585 -178.428543 8.984020 11.638662 9.287277 145.085175 122.658630 -171.089630 179.999985 179.999954 177.166672 0.000001 0.000022 -1.887002 0.000002 0.000002 0.000000 165.000183 -179.999481 166.599777 0.000052 -0.000439 -10.963825 179.999985 -179.999695 172.325317 0.000002 0.000002 0.000000 0.000386 -0.000602 -17.062925 0.000192 -0.000681 -17.062931 179.999985 -179.999527 168.636093 0.000002 0.000002 0.000000 10.000508 -0.000609 -12.541981 0.000360 -0.000716 -12.541995 0.000134 -0.000521 -8.352955 0.000002 0.000002 0.000000 20.000755 -0.000773 -17.822668 0.000719 -0.001461 -26.734018 179.999985 -179.998932 162.195129
2.218535 194.688110 191.184158 178.064911 169.982346 178.565002 2.639913 -33.330776 8.914018 0.158657 38.303577 -3.331737 168.809708 -168.061172 176.667328 175.475357 -140.838333 -168.839401 18.877375 63.217239 5.200184 178.666977 -177.335739 -175.669159 179.943390 164.823318 -179.245331 179.870804 165.116028 -178.884995 178.869690 169.191223 -178.708450 179.999802 -177.887070 178.516388 0.000079 -2.463609 -1.536947 174.745026 -178.113953 179.263748 6.477352 1.389545 -1.456945 11.779753 -18.048120 76.593315 9.825793 2.532722 1.668008 172.352005 171.309067 169.848221 64.212112 50.510265 21.782366 179.999985 -179.999939 -175.570419 179.999985 -179.999969 -177.049896 0.000000 0.000002 0.000000 15.000481 0.000721 32.842323 0.000021 0.000705 26.870964 179.999802 179.999557 -161.190308 0.000000 0.000002 0.000000 179.999786 -179.999756 -150.855240 179.999939 -179.999680 -150.855240 0.000065 -0.000209 19.410408 0.000000 0.000002 0.000000 170.000122 179.999878 -153.407532 0.000052 0.000146 26.592438 179.999985 179.999893 -162.289429 0.000000 0.000002 0.000000 160.000046 179.999954 -159.434204 0.000059 0.000097 30.848696 179.999985 179.999939 -159.454788 178.204178 -175.745850 178.271240 164.753159 -163.633835 105.006935 174.291656 178.598312 -178.428711 8.994889 11.953679 8.948624 144.762314 122.615173 -171.348877 0.000010 -0.000042 -2.806432 0.000004 -0.000014 -1.869091 0.000002 -0.000000 0.000003 165.000153 -179.999710 166.711166 0.000059 -0.000259 -10.872699 0.000007 -0.000189 -7.610877 0.000002 -0.000000 0.000003 179.999390 179.999237 163.215118 179.999634 179.999100 163.215118 179.999969 179.999344 168.821274 0.000002 -0.000000 0.000003 10.000473 -0.000486 -12.426693 0.000366 -0.000582 -12.426677 0.000158 -0.000430 -8.276165 0.000002 -0.000000 0.000003 20.000572 -0.000504 -17.663401 0.000587 -0.000974 -26.495094 0.000064 -0.000768 -17.645725
